<?xml version="1.0" standalone="no"?>
<!DOCTYPE svg PUBLIC "-//W3C//DTD SVG 20010904//EN"
 "http://www.w3.org/TR/2001/REC-SVG-20010904/DTD/svg10.dtd">
<svg version="1.0" xmlns="http://www.w3.org/2000/svg"
 width="180.000000pt" height="180.000000pt" viewBox="0 0 180.000000 180.000000"
 preserveAspectRatio="xMidYMid meet">
<metadata>
Created by potrace 1.14, written by Peter Selinger 2001-2017
</metadata>
<g transform="translate(0.000000,180.000000) scale(0.100000,-0.100000)"
fill="#000000" stroke="none">
<path d="M210 1608 c0 -6 -3 -9 -6 -5 -8 8 -60 -18 -82 -42 -53 -55 -69 -147
-38 -221 16 -40 90 -123 99 -113 4 3 7 2 7 -4 0 -6 16 -14 35 -17 19 -4 35
-11 35 -16 0 -5 -9 -33 -19 -62 -17 -47 -39 -120 -41 -140 -1 -4 -6 -22 -11
-40 -5 -18 -12 -48 -15 -67 -3 -18 -8 -43 -11 -55 -3 -11 -7 -76 -9 -144 -3
-105 -1 -132 17 -185 41 -123 116 -193 257 -241 23 -9 42 -13 42 -10 0 2 9 0
19 -6 11 -5 41 -12 68 -15 30 -3 50 -11 56 -21 23 -42 102 -100 150 -110 4 -1
8 -3 10 -4 10 -9 188 -19 202 -11 6 3 12 6 15 6 3 0 28 7 55 15 37 10 64 28
103 67 40 40 62 54 90 57 20 3 37 5 37 6 0 3 39 11 62 13 13 1 23 5 23 10 0 4
3 6 8 5 4 -1 25 7 47 17 22 10 42 19 45 19 3 1 21 12 41 26 47 31 106 112 120
164 6 22 14 50 18 61 6 16 6 142 0 225 -5 83 -58 302 -92 383 l-16 37 36 15
c19 8 38 15 42 15 18 1 70 62 94 109 32 65 34 119 8 176 -31 67 -102 116 -161
109 -70 -7 -80 -9 -80 -16 0 -4 -4 -8 -9 -8 -5 0 -24 -6 -42 -14 -19 -8 -38
-15 -44 -16 -5 -1 -16 -6 -22 -12 -7 -6 -13 -7 -13 -4 0 4 -9 2 -19 -4 -15 -7
-31 -5 -67 10 -67 29 -167 28 -243 -2 -14 -5 -42 -12 -61 -15 -19 -3 -36 -6
-38 -8 -2 -2 -17 1 -33 5 -19 6 -29 5 -29 -2 0 -7 -4 -7 -12 0 -7 5 -29 13
-48 18 -50 11 -50 11 -52 14 -4 4 -39 9 -82 13 -22 2 -65 -6 -100 -18 -66 -23
-81 -21 -191 26 -16 7 -32 13 -35 13 -3 1 -10 5 -17 9 -21 13 -103 17 -103 5z"/>
</g>
</svg>
